<svg id="Layer_1" data-name="Layer 1" xmlns="http://www.w3.org/2000/svg" viewBox="0 0 206.1 63.1"><defs><style>.cls-1{fill:#f15c3c;}</style></defs><title>Untitled-1</title><path class="cls-1" d="M27.8,50.1H19.6L3.1,6.1H12L23.7,38,35.5,6.1h8.9Z" transform="translate(-3.1 -3.3)"/><path class="cls-1" d="M58.9,50.1A16.2,16.2,0,0,1,51,48.3a14.8,14.8,0,0,1-5.2-4.7,17.6,17.6,0,0,1-3-10,17,17,0,0,1,3-9.9A14.2,14.2,0,0,1,51,18.9a16.2,16.2,0,0,1,7.9-1.8,16.1,16.1,0,0,1,7.8,1.8A14.5,14.5,0,0,1,72,23.7a17.5,17.5,0,0,1,2.9,9.9,18,18,0,0,1-2.9,10,15.1,15.1,0,0,1-5.3,4.7A16.1,16.1,0,0,1,58.9,50.1Zm0-8.2a7.3,7.3,0,0,0,4.3-1.2,8,8,0,0,0,2.7-3.1,9.2,9.2,0,0,0,.8-4,9.2,9.2,0,0,0-.8-4,8.8,8.8,0,0,0-2.7-3.1,7.3,7.3,0,0,0-4.3-1.2,7,7,0,0,0-4.2,1.2,9.6,9.6,0,0,0-2.6,3.1,10.4,10.4,0,0,0,0,8,8.6,8.6,0,0,0,2.6,3.1A7,7,0,0,0,58.9,41.9Z" transform="translate(-3.1 -3.3)"/><path class="cls-1" d="M95,50.5c-4.1,0-7.4-1-9.7-3.1a10.3,10.3,0,0,1-3.5-8.3V4l2-.4A47.8,47.8,0,0,1,90,3.3V39.1a5,5,0,0,0,1.8,4.3c1.2.9,3.3,1.3,6.4,1.3v5.4A11.2,11.2,0,0,1,95,50.5Z" transform="translate(-3.1 -3.3)"/><path class="cls-1" d="M115.3,50.5c-4.2,0-7.4-1-9.8-3.1a10.6,10.6,0,0,1-3.5-8.3V4l2.1-.4a46.7,46.7,0,0,1,6.2-.3V39.1a5.2,5.2,0,0,0,1.7,4.3c1.2.9,3.4,1.3,6.5,1.3v5.4A12.2,12.2,0,0,1,115.3,50.5Z" transform="translate(-3.1 -3.3)"/><path class="cls-1" d="M137.7,42.1a20,20,0,0,0,10.2-3v5.4A14.8,14.8,0,0,1,136,50.1a16.6,16.6,0,0,1-8.3-2.2,17.2,17.2,0,0,1-6-6,15.9,15.9,0,0,1-2.2-8.3,15.9,15.9,0,0,1,2.2-8.3,17.2,17.2,0,0,1,6-6A17.2,17.2,0,0,1,141.6,18a14,14,0,0,1,4,2.3,12.7,12.7,0,0,1,2.4,3.3,10.9,10.9,0,0,1,1.3,3.7,15,15,0,0,1,.4,3.5v5.5H128.2C128.9,40.2,132,42.1,137.7,42.1ZM141.1,29a5.1,5.1,0,0,0-.8-1.7,5.6,5.6,0,0,0-1.6-1.4,5.4,5.4,0,0,0-2.7-.6,8.8,8.8,0,0,0-4,1,9.4,9.4,0,0,0-2.9,2.7Z" transform="translate(-3.1 -3.3)"/><path class="cls-1" d="M164.8,50.1h-8.2V28.4c0-3.7,1.1-6.6,3.5-8.6s5.6-3.1,9.7-3.1a11.7,11.7,0,0,1,3.2.4v5.3c-3.1,0-5.2.5-6.4,1.4s-1.8,2.4-1.8,4.6Z" transform="translate(-3.1 -3.3)"/><path class="cls-1" d="M209.2,49.2c0,5.4-1.3,9.7-4.1,12.7s-7,4.6-12.8,4.6A18,18,0,0,1,179,60.8V55.5A29.7,29.7,0,0,0,192.3,59c3.6,0,6-.8,7.1-2.5s1.6-4.1,1.6-7.3v-.4a20.1,20.1,0,0,1-6.9,1.3,18.4,18.4,0,0,1-4.7-.6,14,14,0,0,1-9-6.9,14.1,14.1,0,0,1-1.4-6.4v-11a2.5,2.5,0,0,0-.3-1.3,2.7,2.7,0,0,0-2.5-1.4V17l2.9-.3a9,9,0,0,1,5.3,1.5c1.9,1.4,2.9,3.7,2.9,7v11a4.5,4.5,0,0,0,1,3.1,5.8,5.8,0,0,0,2.5,1.8,9.6,9.6,0,0,0,3.3.6,8.8,8.8,0,0,0,3.3-.6,6.1,6.1,0,0,0,2.6-1.8,4.5,4.5,0,0,0,1-3.1V17h8.2Z" transform="translate(-3.1 -3.3)"/></svg>